<svg width="207" height="211" viewBox="0 0 207 211" fill="none" xmlns="http://www.w3.org/2000/svg">
<path fill-rule="evenodd" clip-rule="evenodd" d="M160.426 7.64644C133.103 -0.731195 67.1264 -9.03276 12.1602 22.4681C4.31276 26.9654 -0.40976 35.4565 0.0280108 44.5417C2.03847 86.2653 23.5344 166.938 100.274 209.548C105.825 212.63 112.832 210.644 115.925 205.109C119.019 199.573 117.024 192.586 111.472 189.504C44.3669 152.244 24.8189 80.8835 23.0148 43.4408C22.9946 43.0224 23.206 42.6021 23.629 42.3597C47.2497 28.8228 73.7223 23.7652 97.3666 23.0358C121.017 22.3062 141.708 25.9114 153.661 29.5765C159.733 31.4384 166.172 28.0416 168.041 21.9849C169.911 15.9273 166.499 9.50858 160.426 7.64644Z" fill="#FCFCFC"/>
<path fill-rule="evenodd" clip-rule="evenodd" d="M206.505 32.2927C206.171 25.9639 200.754 21.1064 194.41 21.4386C188.066 21.771 183.189 27.1678 183.523 33.4968C186.741 94.5437 154.779 139.456 134.805 157.914C134.786 157.931 134.769 157.946 134.753 157.959C122.854 152.765 109.587 140.977 97.2686 126.885C85.0846 112.947 74.8598 97.9613 69.0395 88.1471C65.8054 82.6934 58.7497 80.8874 53.2803 84.1098C47.8097 87.3335 45.9948 94.369 49.23 99.8246C55.6738 110.69 66.7034 126.841 79.9189 141.959C92.9042 156.814 109.07 171.927 125.944 179.159C134.655 182.893 144.136 180.575 150.449 174.741C173.892 153.078 210.178 101.981 206.505 32.2927Z" fill="#FCFCFC"/>
<path fill-rule="evenodd" clip-rule="evenodd" d="M53.9388 70.5913C61.1559 67.6452 75.192 63.6046 92.0575 61.8709C108.907 60.1389 127.799 60.7913 145.132 66.5276C145.349 66.5994 145.428 66.6944 145.456 66.7353C145.479 66.7696 145.487 66.8006 145.487 66.8006C144.496 81.651 137.605 98.7598 120.154 121.053C116.243 126.049 117.137 133.259 122.147 137.156C127.157 141.052 134.386 140.163 138.296 135.169C157.322 110.863 167.047 89.4342 168.451 68.3013C169.173 57.4256 162.208 48.004 152.382 44.7523C130.998 37.6751 108.606 37.1044 89.6977 39.0481C70.8053 40.9901 54.6104 45.5242 45.2175 49.3591C39.3373 51.7599 36.5205 58.4595 38.9303 64.3241C41.3397 70.1878 48.0597 72.9921 53.9388 70.5913Z" fill="#FCFCFC"/>
</svg>
