<svg width="409" height="97" viewBox="0 0 409 97" fill="none" xmlns="http://www.w3.org/2000/svg">
<path d="M4.62109 18.5176C25.5086 6.57424 50.5802 9.72209 60.9629 12.8984C63.2706 13.6045 64.5669 16.0383 63.8564 18.335C63.146 20.6309 60.6998 21.9185 58.3926 21.2129C53.8503 19.8233 45.9872 18.4568 37 18.7334C28.0151 19.0099 17.9555 20.9272 8.97949 26.0596C8.81874 26.1515 8.73842 26.3111 8.74609 26.4697C9.43175 40.6661 16.8603 67.7217 42.3604 81.8486C44.4699 83.0175 45.2275 85.6667 44.0518 87.7656C42.8764 89.8641 40.2136 90.6167 38.1045 89.4482C8.94319 73.2927 0.774725 42.706 0.0107422 26.8867C-0.155552 23.4421 1.63907 20.2227 4.62109 18.5176ZM5.31348 18.9756C5.20589 19.0362 5.09857 19.0978 4.99121 19.1592C4.98672 19.1617 4.98203 19.1644 4.97754 19.167C4.87458 19.2261 4.77269 19.2866 4.67285 19.3496C2.12146 20.9595 0.605113 23.811 0.751953 26.8516C1.50934 42.5335 9.61557 72.8198 38.4658 88.8027C39.2761 89.2516 40.1844 89.3576 41.0234 89.1709C40.1858 89.356 39.2793 89.2487 38.4707 88.8008C9.62096 72.8179 1.51528 42.5325 0.757812 26.8506C0.60497 23.6858 2.2534 20.7255 4.99609 19.1572C5.27895 18.9955 5.56328 18.8378 5.84766 18.6816C5.66974 18.7793 5.49081 18.8757 5.31348 18.9756ZM73.877 18.127C76.2877 18.001 78.3457 19.8436 78.4727 22.2432C79.8682 48.6651 66.0806 68.0382 57.1719 76.252C54.7729 78.4637 51.1699 79.3425 47.8594 77.9268C41.4475 75.1851 35.3046 69.4544 30.3701 63.8223C25.3483 58.0905 21.1567 51.9674 18.708 47.8477C17.4786 45.7792 18.1682 43.1109 20.2471 41.8887C22.3255 40.6672 25.0064 41.3523 26.2354 43.4199C28.4471 47.1409 32.3329 52.823 36.9629 58.1074C41.644 63.4503 46.6856 67.9195 51.207 69.8887C51.213 69.8839 51.2196 69.8778 51.2266 69.8711C58.8171 62.873 70.963 45.8449 69.7402 22.6992C69.6135 20.2997 71.466 18.253 73.877 18.127ZM75.6211 19.1904C76.8058 19.7337 77.6553 20.8956 77.7285 22.2812C79.1096 48.4242 65.461 67.5976 56.6641 75.708C54.4584 77.7414 51.1646 78.5347 48.1504 77.2461C47.9328 77.153 47.7152 77.0561 47.498 76.9561C47.7159 77.0565 47.934 77.1537 48.1523 77.2471C51.1666 78.5358 54.4612 77.7425 56.667 75.709C65.464 67.5984 79.1127 48.4243 77.7314 22.2812C77.6581 20.8948 76.8069 19.7332 75.6211 19.1904ZM50.6895 70.4678C50.6486 70.4494 50.6073 70.4319 50.5664 70.4131C50.6073 70.4319 50.6486 70.4494 50.6895 70.4678ZM23.9102 42.3193C24.5907 42.6115 25.1877 43.1127 25.5938 43.7959C27.8255 47.5503 31.7373 53.2694 36.4004 58.5918C40.9727 63.8104 45.9529 68.2804 50.5273 70.3945C45.9536 68.28 40.9748 63.8105 36.4033 58.5928C31.7402 53.2705 27.8285 47.5514 25.5967 43.7969C25.1902 43.1129 24.5917 42.6113 23.9102 42.3193ZM34.0859 24.8037C41.2711 24.0668 49.7804 24.2835 57.9062 26.9668C61.6399 28.1997 64.2872 31.7721 64.0127 35.8955C63.4791 43.9079 59.7836 52.0327 52.5537 61.248C51.068 63.1415 48.3207 63.4782 46.417 62.001C44.513 60.5235 44.1732 57.7895 45.6592 55.8955C52.2905 47.4432 54.9096 40.9566 55.2861 35.3262C55.286 35.3256 55.2828 35.3143 55.2744 35.3018C55.2639 35.2863 55.2336 35.2499 55.1514 35.2227C48.5649 33.0478 41.3854 32.8004 34.9824 33.457C28.5734 34.1144 23.2396 35.6467 20.4971 36.7637C18.2631 37.6738 15.7096 36.6106 14.7939 34.3877C13.8782 32.1642 14.9482 29.6232 17.1826 28.7129C20.752 27.2589 26.9067 25.54 34.0859 24.8037ZM48.8398 62.1719C48.903 62.1764 48.9661 62.1804 49.0293 62.1816C48.9661 62.1803 48.903 62.1764 48.8398 62.1719ZM48.334 62.1006H48.335H48.334ZM47.335 61.7236C47.3449 61.7292 47.3553 61.7338 47.3652 61.7393C47.3022 61.7048 47.2393 61.6694 47.1777 61.6309L47.335 61.7236ZM46.873 61.418H46.874H46.873ZM46.3418 60.9131H46.3428H46.3418ZM45.7783 60.0156C45.8251 60.1225 45.8772 60.2275 45.9346 60.3301C45.9632 60.3812 45.9932 60.4316 46.0244 60.4814L46.0254 60.4824C45.9312 60.3321 45.8485 60.1762 45.7783 60.0156ZM45.6553 59.6904C45.6373 59.6354 45.6198 59.5802 45.6045 59.5244C45.6351 59.6359 45.6716 59.746 45.7129 59.8545L45.6553 59.6904ZM45.5586 57.8037C45.5213 57.9749 45.4963 58.1479 45.4844 58.3213C45.4764 58.4371 45.4743 58.5532 45.4775 58.6689C45.4796 58.7453 45.4852 58.8214 45.4922 58.8975C45.459 58.534 45.48 58.1653 45.5586 57.8047V57.8037ZM45.8525 56.9697C45.799 57.0771 45.751 57.1862 45.709 57.2969L45.71 57.2979C45.773 57.1318 45.8484 56.9687 45.9375 56.8105V56.8096C45.9077 56.8624 45.8794 56.9159 45.8525 56.9697ZM50.5381 50.2988C49.488 51.9705 48.2675 53.7196 46.8594 55.5576C46.6582 55.8202 46.453 56.0844 46.2441 56.3506C46.2056 56.3997 46.1684 56.4496 46.1328 56.5L46.1338 56.501C46.1694 56.4505 46.2066 56.4007 46.2451 56.3516C48.1252 53.9553 49.6905 51.7082 50.9785 49.5869L50.5381 50.2988ZM51.7969 48.1914H51.7959H51.7969ZM54.9326 41.1045C54.5574 42.3117 54.0828 43.5591 53.4971 44.8535L53.7812 44.21C54.2387 43.1446 54.62 42.1111 54.9326 41.1055V41.1045ZM23.3994 42.1426C23.5033 42.17 23.6059 42.2019 23.707 42.2383C23.6059 42.2019 23.5033 42.1699 23.3994 42.1426ZM22.9639 42.0566C23.0129 42.0634 23.0617 42.0714 23.1104 42.0801C23.0617 42.0714 23.0129 42.0633 22.9639 42.0566ZM55.6689 38.166C55.5247 38.9298 55.3405 39.7088 55.1123 40.5049L55.2754 39.9111C55.4303 39.3207 55.5608 38.7396 55.6689 38.167V38.166ZM18.4482 36.3281H18.4492H18.4482ZM17.8857 36.2207C17.9146 36.2286 17.9436 36.236 17.9727 36.2432C17.9436 36.236 17.9146 36.2286 17.8857 36.2207ZM17.6006 36.1318H17.5996H17.6006ZM16.041 35.0391C16.209 35.2414 16.3984 35.4214 16.6025 35.5801C16.3984 35.4213 16.209 35.2414 16.041 35.0391ZM56.0254 35.25H56.0244H56.0254ZM15.373 31.6689C15.1661 32.3312 15.1488 33.0559 15.3574 33.7578C15.3922 33.8748 15.433 33.9912 15.4805 34.1064C15.5042 34.164 15.5294 34.2217 15.5557 34.2773C15.6083 34.3888 15.667 34.496 15.7295 34.5996L15.6396 34.4414C15.582 34.3339 15.5289 34.2226 15.4814 34.1074C15.1491 33.3004 15.1318 32.4425 15.373 31.6699V31.6689ZM55.3848 34.5215H55.3857H55.3848ZM50.0928 33.1807C50.7976 33.31 51.5003 33.4563 52.1992 33.6221C51.5003 33.4563 50.7976 33.31 50.0928 33.1807ZM48.3105 32.8896H48.3115H48.3105ZM62.1416 31.2148C62.1995 31.3104 62.2557 31.4069 62.3096 31.5049C62.2557 31.4069 62.1995 31.3104 62.1416 31.2148ZM16.2656 30.1934L16.2646 30.1924L16.2656 30.1934ZM17.4639 29.3975C17.348 29.4447 17.2361 29.4973 17.1279 29.5547L17.2939 29.4727C17.3499 29.4465 17.407 29.421 17.4648 29.3975H17.4639ZM26.6748 26.7051C26.2921 26.7853 25.9156 26.8673 25.5459 26.9512C25.1761 27.0351 24.8131 27.1211 24.457 27.208C23.7452 27.3818 23.0615 27.561 22.4092 27.7432C21.7568 27.9254 21.1356 28.1101 20.5488 28.2959H20.5498C22.6036 27.6458 25.0777 27.0026 27.8418 26.4707L26.6748 26.7051ZM58.3037 27.9062C58.5669 28.0175 58.8222 28.1429 59.0703 28.2793C58.725 28.0894 58.3651 27.9218 57.9912 27.7812L58.3037 27.9062ZM55.415 26.9893C56.1702 27.1954 56.9233 27.4214 57.6729 27.6689L56.9219 27.4277C56.6712 27.3499 56.4202 27.2744 56.1689 27.2012C55.9176 27.1279 55.6659 27.057 55.4141 26.9883L55.415 26.9893ZM50.1113 25.8584C51.1216 26.0172 52.1337 26.2067 53.1445 26.4297C52.386 26.2623 51.6268 26.1132 50.8682 25.9824C50.6155 25.9389 50.3629 25.8971 50.1104 25.8574L50.1113 25.8584ZM34.1621 25.54C35.7192 25.3803 37.3373 25.2654 38.999 25.2119C37.3373 25.2654 35.7192 25.3794 34.1621 25.5391C32.3837 25.7215 30.6693 25.9655 29.0439 26.25L30.2793 26.0449C31.5305 25.8479 32.8282 25.6768 34.1621 25.54ZM43.3584 25.2188C43.8381 25.236 44.32 25.258 44.8037 25.2871C44.32 25.258 43.8381 25.236 43.3584 25.2188ZM17.7676 21.3203C17.6434 21.3625 17.5186 21.4032 17.3945 21.4463C17.5186 21.4032 17.6434 21.3625 17.7676 21.3203ZM19.752 20.6865C19.4633 20.773 19.1749 20.8619 18.8867 20.9531C19.1749 20.8619 19.4633 20.7729 19.752 20.6865ZM58.6152 20.5049C52.1338 18.522 39.1222 16.6133 25.6426 19.2393C39.1204 16.6147 52.1298 18.5233 58.6104 20.5059C59.2098 20.6892 59.8203 20.7103 60.3945 20.5947C59.8217 20.7092 59.2129 20.6877 58.6152 20.5049ZM23.5576 19.6807C22.8122 19.852 22.0667 20.0392 21.3213 20.2402C22.0667 20.0392 22.8122 19.8519 23.5576 19.6807ZM74.5898 18.8926C74.7025 18.9076 74.8135 18.928 74.9229 18.9531C74.8135 18.9281 74.7025 18.9075 74.5898 18.8926ZM6.83301 18.1523C6.56519 18.2926 6.29783 18.435 6.03125 18.5801C6.29781 18.435 6.56521 18.2927 6.83301 18.1523ZM7.80371 17.6553C7.53453 17.7899 7.26609 17.9271 6.99805 18.0664C7.26607 17.9271 7.53455 17.7899 7.80371 17.6553ZM8.77539 17.1807C8.51029 17.3071 8.24554 17.4355 7.98145 17.5664C8.24553 17.4355 8.5103 17.3071 8.77539 17.1807ZM9.73438 16.7334C9.482 16.8483 9.23007 16.9652 8.97852 17.084C9.23006 16.9652 9.48201 16.8483 9.73438 16.7334ZM10.7109 16.2998C10.4639 16.4069 10.217 16.5152 9.9707 16.626C10.217 16.5152 10.464 16.4069 10.7109 16.2998ZM11.6807 15.8896C11.4488 15.9854 11.2167 16.0817 10.9854 16.1807C11.2167 16.0817 11.4488 15.9855 11.6807 15.8896ZM12.6523 15.498C12.4312 15.585 12.21 15.6729 11.9893 15.7627C12.21 15.6729 12.4312 15.585 12.6523 15.498ZM13.6064 15.1318C13.4029 15.208 13.1993 15.2848 12.9961 15.3633C13.1993 15.2848 13.4029 15.208 13.6064 15.1318ZM14.5811 14.7764C14.401 14.8404 14.2209 14.9049 14.041 14.9707C14.2209 14.9049 14.401 14.8404 14.5811 14.7764ZM15.6123 14.4199C15.4138 14.4866 15.2149 14.5532 15.0166 14.6221C15.2149 14.5532 15.4138 14.4867 15.6123 14.4199ZM16.6729 14.0742C16.461 14.1413 16.2488 14.2079 16.0371 14.2773C16.2487 14.2078 16.4611 14.1413 16.6729 14.0742ZM17.6641 13.7686C17.4466 13.8337 17.229 13.8992 17.0117 13.9668C17.229 13.8992 17.4466 13.8337 17.6641 13.7686ZM18.5742 13.5029C18.4034 13.5514 18.2323 13.5994 18.0615 13.6494C18.2323 13.5994 18.4034 13.5514 18.5742 13.5029ZM19.6162 13.2158C19.4324 13.2648 19.2483 13.3136 19.0645 13.3643C19.2483 13.3136 19.4324 13.2648 19.6162 13.2158ZM20.665 12.9453C20.4705 12.9939 20.2757 13.0424 20.0811 13.0928C20.2757 13.0424 20.4705 12.9939 20.665 12.9453ZM21.7432 12.6855C21.5164 12.7383 21.2894 12.7915 21.0625 12.8467C21.2894 12.7915 21.5164 12.7383 21.7432 12.6855ZM22.6562 12.4795C22.4546 12.5235 22.2526 12.5673 22.0508 12.6133C22.2526 12.5673 22.4546 12.5236 22.6562 12.4795ZM23.4912 12.3018C23.3708 12.3265 23.2504 12.3515 23.1299 12.377C23.2503 12.3515 23.3708 12.3266 23.4912 12.3018ZM24.543 12.0938C24.4142 12.1183 24.2851 12.1417 24.1562 12.167C24.2851 12.1417 24.4142 12.1183 24.543 12.0938ZM25.5381 11.9121C25.4006 11.9363 25.2627 11.9593 25.125 11.9844C25.2627 11.9593 25.4006 11.9363 25.5381 11.9121ZM26.4512 11.7568C26.3559 11.7724 26.2604 11.7868 26.165 11.8027C26.2604 11.7868 26.3559 11.7724 26.4512 11.7568ZM27.3936 11.6094C27.3181 11.6207 27.2425 11.631 27.167 11.6426C27.2425 11.631 27.3181 11.6207 27.3936 11.6094ZM28.374 11.4688C28.3067 11.4779 28.2392 11.4857 28.1719 11.4951C28.2392 11.4857 28.3067 11.4779 28.374 11.4688ZM30.2666 11.2334C30.2318 11.2373 30.1969 11.2412 30.1621 11.2451C30.1969 11.2412 30.2318 11.2373 30.2666 11.2334ZM31.3711 11.1182C31.2852 11.1265 31.1993 11.1349 31.1133 11.1436C31.1993 11.1349 31.2852 11.1265 31.3711 11.1182ZM32.2285 11.04C32.1879 11.0435 32.1471 11.0462 32.1064 11.0498C32.1471 11.0462 32.1879 11.0435 32.2285 11.04ZM33.2402 10.959C33.1872 10.9629 33.1341 10.9657 33.0811 10.9697C33.1341 10.9657 33.1872 10.9629 33.2402 10.959ZM34.2559 10.8906C34.1733 10.8956 34.0905 10.9 34.0078 10.9053C34.0905 10.9 34.1733 10.8957 34.2559 10.8906ZM35.0732 10.8447C35.0521 10.8458 35.0309 10.8466 35.0098 10.8477C35.0309 10.8466 35.0521 10.8458 35.0732 10.8447ZM51.0176 70.6133C51.0185 70.6137 51.0196 70.6139 51.0205 70.6143C50.9104 70.5672 50.8001 70.5177 50.6895 70.4678C50.7992 70.5173 50.9083 70.5665 51.0176 70.6133ZM60.9111 20.4502C60.9075 20.4515 60.904 20.4528 60.9004 20.4541C60.904 20.4528 60.9075 20.4515 60.9111 20.4502Z" fill="#FCFCFC"/>
<path d="M116.392 60.2792C112.563 60.2792 109.095 59.447 105.988 57.7822C102.936 56.0623 100.494 53.593 98.6635 50.3748C96.8877 47.101 96 43.189 96 38.639C96 34.0338 96.9988 30.1218 98.9963 26.9035C100.994 23.6853 103.629 21.2438 106.903 19.5793C110.177 17.8591 113.7 16.999 117.474 16.999C120.026 16.999 122.273 17.4152 124.215 18.2475C126.213 19.0798 127.988 20.134 129.542 21.4103L123.799 29.3173C121.857 27.708 119.998 26.9035 118.223 26.9035C115.282 26.9035 112.924 27.9578 111.148 30.0663C109.428 32.1748 108.568 35.0325 108.568 38.639C108.568 42.1903 109.428 45.048 111.148 47.212C112.924 49.3205 115.143 50.3748 117.806 50.3748C119.138 50.3748 120.442 50.0973 121.718 49.5425C122.995 48.932 124.16 48.2108 125.214 47.3785L130.041 55.3685C127.988 57.1442 125.769 58.4205 123.383 59.1972C120.997 59.9185 118.667 60.2792 116.392 60.2792Z" fill="#FCFCFC"/>
<path d="M142.318 60.2792C138.545 60.2792 135.549 59.0862 133.329 56.7002C131.11 54.2588 130 51.2903 130 47.7945C130 43.4665 131.831 40.0818 135.493 37.6403C139.155 35.199 145.065 33.562 153.221 32.7298C153.11 30.8985 152.556 29.456 151.557 28.4018C150.613 27.292 149.004 26.737 146.729 26.737C145.009 26.737 143.261 27.07 141.486 27.7358C139.71 28.4018 137.824 29.3173 135.826 30.4825L131.415 22.409C134.023 20.7998 136.797 19.496 139.738 18.4972C142.734 17.4984 145.842 16.999 149.06 16.999C154.331 16.999 158.382 18.5249 161.212 21.5768C164.041 24.6285 165.456 29.3173 165.456 35.6428V59.2805H155.469L154.636 55.0358H154.303C152.583 56.5892 150.724 57.8655 148.727 58.8642C146.785 59.8075 144.649 60.2792 142.318 60.2792ZM146.48 50.791C147.867 50.791 149.06 50.4858 150.059 49.8753C151.113 49.2095 152.167 48.3495 153.221 47.2953V40.054C148.893 40.609 145.897 41.4968 144.232 42.7175C142.568 43.8828 141.735 45.2698 141.735 46.879C141.735 48.2108 142.152 49.2095 142.984 49.8753C143.872 50.4858 145.037 50.791 146.48 50.791Z" fill="#FCFCFC"/>
<path d="M180.236 60.3438C176.019 60.3438 173.078 59.0953 171.414 56.5983C169.804 54.0461 169 50.6891 169 46.5273V1H181.235V47.0268C181.235 48.3031 181.457 49.1908 181.901 49.6903C182.4 50.1896 182.9 50.4393 183.399 50.4393C183.676 50.4393 183.898 50.4393 184.065 50.4393C184.287 50.3838 184.564 50.3283 184.897 50.2728L186.395 59.3451C185.729 59.6226 184.869 59.8443 183.815 60.0108C182.816 60.2328 181.623 60.3438 180.236 60.3438Z" fill="#FCFCFC"/>
<path d="M192.832 60.1762V18.8935H205.067V60.1762H192.832ZM198.908 12.8176C196.855 12.8176 195.19 12.235 193.914 11.0698C192.638 9.90451 192 8.35086 192 6.40879C192 4.46674 192.638 2.9131 193.914 1.74785C195.19 0.582624 196.855 0 198.908 0C200.961 0 202.626 0.582624 203.902 1.74785C205.178 2.9131 205.816 4.46674 205.816 6.40879C205.816 8.35086 205.178 9.90451 203.902 11.0698C202.626 12.235 200.961 12.8176 198.908 12.8176Z" fill="#FCFCFC"/>
<path d="M212 60.2815V18.9988H221.988L222.82 24.3255H223.153C224.873 22.6055 226.704 21.135 228.646 19.9143C230.588 18.6381 232.919 18 235.638 18C238.578 18 240.937 18.6104 242.712 19.8311C244.543 20.9963 245.986 22.6888 247.04 24.9083C248.871 23.0215 250.815 21.4125 252.867 20.0808C254.92 18.6936 257.305 18 260.025 18C264.462 18 267.71 19.4982 269.762 22.4945C271.872 25.4353 272.925 29.486 272.925 34.6463V60.2815H260.69V36.2277C260.69 33.2313 260.275 31.1783 259.442 30.0685C258.665 28.9588 257.39 28.404 255.612 28.404C253.56 28.404 251.202 29.7355 248.538 32.399V60.2815H236.303V36.2277C236.303 33.2313 235.887 31.1783 235.055 30.0685C234.278 28.9588 233.002 28.404 231.226 28.404C229.173 28.404 226.843 29.7355 224.235 32.399V60.2815H212Z" fill="#FCFCFC"/>
<path d="M297.892 61.2802C293.952 61.2802 290.4 60.4202 287.237 58.7C284.075 56.98 281.577 54.5107 279.747 51.2925C277.915 48.0742 277 44.19 277 39.64C277 35.1458 277.915 31.2893 279.747 28.071C281.632 24.8528 284.075 22.3835 287.072 20.6635C290.067 18.8878 293.202 18 296.477 18C300.415 18 303.662 18.8878 306.215 20.6635C308.822 22.3835 310.765 24.7418 312.04 27.738C313.372 30.679 314.037 34.0358 314.037 37.809C314.037 38.8632 313.982 39.9175 313.872 40.9717C313.76 41.9705 313.65 42.7197 313.54 43.219H288.82C289.375 46.2155 290.622 48.435 292.565 49.8775C294.507 51.2647 296.837 51.9582 299.555 51.9582C302.497 51.9582 305.465 51.0427 308.462 49.2117L312.54 56.6192C310.432 58.062 308.072 59.1995 305.465 60.0317C302.857 60.864 300.332 61.2802 297.892 61.2802ZM288.735 35.1455H303.635C303.635 32.8708 303.08 31.0118 301.97 29.5693C300.915 28.071 299.167 27.322 296.725 27.322C294.84 27.322 293.147 27.9878 291.65 29.3195C290.15 30.5958 289.18 32.5378 288.735 35.1455Z" fill="#FCFCFC"/>
<path d="M319 62.2815V20.9988H328.987L329.82 28.24H330.153C331.65 25.4655 333.455 23.4125 335.562 22.0808C337.672 20.6936 339.78 20 341.887 20C343.052 20 344.025 20.0832 344.802 20.2497C345.577 20.3607 346.245 20.5549 346.8 20.8323L344.802 31.4028C344.08 31.1808 343.36 31.0143 342.637 30.9033C341.972 30.7923 341.195 30.7368 340.307 30.7368C338.752 30.7368 337.117 31.3195 335.397 32.4848C333.732 33.5945 332.345 35.5365 331.235 38.3108V62.2815H319Z" fill="#FCFCFC"/>
<path d="M366.142 63.2802C362.647 63.2802 359.345 62.448 356.237 60.7832C353.185 59.0632 350.718 56.594 348.83 53.3757C346.943 50.102 346 46.19 346 41.64C346 37.0348 346.943 33.1228 348.83 29.9045C350.718 26.6863 353.185 24.2448 356.237 22.5803C359.345 20.86 362.647 20 366.142 20C369.637 20 372.912 20.86 375.962 22.5803C379.015 24.2448 381.485 26.6863 383.37 29.9045C385.257 33.1228 386.2 37.0348 386.2 41.64C386.2 46.19 385.257 50.102 383.37 53.3757C381.485 56.594 379.015 59.0632 375.962 60.7832C372.912 62.448 369.637 63.2802 366.142 63.2802ZM366.142 53.3757C368.64 53.3757 370.525 52.3215 371.802 50.213C373.077 48.049 373.717 45.1912 373.717 41.64C373.717 38.0335 373.077 35.1758 371.802 33.0673C370.525 30.9588 368.64 29.9045 366.142 29.9045C363.59 29.9045 361.675 30.9588 360.4 33.0673C359.178 35.1758 358.568 38.0335 358.568 41.64C358.568 45.1912 359.178 48.049 360.4 50.213C361.675 52.3215 363.59 53.3757 366.142 53.3757Z" fill="#FCFCFC"/>
<path d="M363.918 78.6562H360.185C360.116 78.1733 359.977 77.7443 359.767 77.3693C359.557 76.9886 359.287 76.6648 358.957 76.3977C358.628 76.1307 358.247 75.9261 357.815 75.7841C357.389 75.642 356.926 75.571 356.426 75.571C355.523 75.571 354.736 75.7955 354.065 76.2443C353.395 76.6875 352.875 77.3352 352.506 78.1875C352.136 79.0341 351.952 80.0625 351.952 81.2727C351.952 82.517 352.136 83.5625 352.506 84.4091C352.881 85.2557 353.403 85.8949 354.074 86.3267C354.744 86.7585 355.52 86.9744 356.401 86.9744C356.895 86.9744 357.352 86.9091 357.773 86.7784C358.199 86.6477 358.577 86.4574 358.906 86.2074C359.236 85.9517 359.509 85.642 359.724 85.2784C359.946 84.9148 360.099 84.5 360.185 84.0341L363.918 84.0511C363.821 84.8523 363.58 85.625 363.193 86.3693C362.813 87.108 362.298 87.7699 361.651 88.3551C361.009 88.9347 360.241 89.3949 359.349 89.7358C358.463 90.071 357.46 90.2386 356.341 90.2386C354.784 90.2386 353.392 89.8864 352.165 89.1818C350.943 88.4773 349.977 87.4574 349.267 86.1222C348.562 84.7869 348.21 83.1705 348.21 81.2727C348.21 79.3693 348.568 77.75 349.284 76.4148C350 75.0795 350.972 74.0625 352.199 73.3636C353.426 72.6591 354.807 72.3068 356.341 72.3068C357.352 72.3068 358.29 72.4489 359.153 72.733C360.023 73.017 360.793 73.4318 361.463 73.9773C362.134 74.517 362.679 75.179 363.099 75.9631C363.526 76.7472 363.798 77.6449 363.918 78.6562ZM370.126 82.4318V90H366.496V72.5455H370.024V79.2188H370.178C370.473 78.446 370.95 77.8409 371.609 77.4034C372.268 76.9602 373.095 76.7386 374.089 76.7386C374.999 76.7386 375.791 76.9375 376.467 77.3352C377.149 77.7273 377.678 78.2926 378.053 79.0312C378.433 79.7642 378.621 80.642 378.615 81.6648V90H374.984V82.3125C374.99 81.5057 374.786 80.8778 374.371 80.429C373.962 79.9801 373.388 79.7557 372.649 79.7557C372.155 79.7557 371.717 79.8608 371.337 80.071C370.962 80.2812 370.666 80.5881 370.45 80.9915C370.24 81.3892 370.132 81.8693 370.126 82.4318ZM385.205 90.2472C384.37 90.2472 383.626 90.1023 382.972 89.8125C382.319 89.517 381.802 89.0824 381.421 88.5085C381.046 87.929 380.859 87.2074 380.859 86.3438C380.859 85.6165 380.992 85.0057 381.259 84.5114C381.526 84.017 381.89 83.6193 382.35 83.3182C382.81 83.017 383.333 82.7898 383.918 82.6364C384.509 82.483 385.129 82.375 385.776 82.3125C386.538 82.233 387.151 82.1591 387.617 82.0909C388.083 82.017 388.421 81.9091 388.631 81.767C388.842 81.625 388.947 81.4148 388.947 81.1364V81.0852C388.947 80.5455 388.776 80.1278 388.435 79.8324C388.1 79.5369 387.623 79.3892 387.004 79.3892C386.35 79.3892 385.83 79.5341 385.444 79.8239C385.058 80.108 384.802 80.4659 384.677 80.8977L381.319 80.625C381.489 79.8295 381.825 79.142 382.325 78.5625C382.825 77.9773 383.469 77.5284 384.259 77.2159C385.055 76.8977 385.975 76.7386 387.021 76.7386C387.748 76.7386 388.444 76.8239 389.109 76.9943C389.779 77.1648 390.373 77.429 390.89 77.7869C391.413 78.1449 391.825 78.6051 392.126 79.1676C392.427 79.7244 392.577 80.392 392.577 81.1705V90H389.134V88.1847H389.032C388.822 88.5938 388.54 88.9545 388.188 89.267C387.836 89.5739 387.413 89.8153 386.918 89.9915C386.424 90.1619 385.853 90.2472 385.205 90.2472ZM386.245 87.7415C386.779 87.7415 387.251 87.6364 387.66 87.4261C388.069 87.2102 388.39 86.9205 388.623 86.5568C388.856 86.1932 388.972 85.7812 388.972 85.321V83.9318C388.859 84.0057 388.702 84.0739 388.504 84.1364C388.31 84.1932 388.092 84.2472 387.847 84.2983C387.603 84.3437 387.359 84.3864 387.114 84.4261C386.87 84.4602 386.648 84.4915 386.45 84.5199C386.023 84.5824 385.651 84.6818 385.333 84.8182C385.015 84.9545 384.768 85.1392 384.592 85.3722C384.415 85.5994 384.327 85.8835 384.327 86.2244C384.327 86.7188 384.506 87.0966 384.864 87.358C385.228 87.6136 385.688 87.7415 386.245 87.7415ZM402.357 76.9091V79.6364H394.474V76.9091H402.357ZM396.263 73.7727H399.894V85.9773C399.894 86.3125 399.945 86.5739 400.048 86.7614C400.15 86.9432 400.292 87.071 400.474 87.1449C400.661 87.2187 400.877 87.2557 401.121 87.2557C401.292 87.2557 401.462 87.2415 401.633 87.2131C401.803 87.179 401.934 87.1534 402.025 87.1364L402.596 89.8381C402.414 89.8949 402.158 89.9602 401.829 90.0341C401.499 90.1136 401.099 90.1619 400.627 90.179C399.752 90.2131 398.985 90.0966 398.326 89.8295C397.673 89.5625 397.164 89.1477 396.8 88.5852C396.437 88.0227 396.258 87.3125 396.263 86.4545V73.7727Z" fill="#A5FF11"/>
</svg>
