<svg width="146" height="49" viewBox="0 0 146 49" fill="none" xmlns="http://www.w3.org/2000/svg">
<path d="M42.1136 17.75H32.1591C31.9773 16.4621 31.6061 15.3182 31.0455 14.3182C30.4849 13.303 29.7652 12.4394 28.8864 11.7273C28.0076 11.0151 26.9924 10.4697 25.8409 10.0909C24.7045 9.71212 23.4697 9.52273 22.1364 9.52273C19.7273 9.52273 17.6288 10.1212 15.8409 11.3182C14.053 12.5 12.6667 14.2273 11.6818 16.5C10.697 18.7576 10.2045 21.5 10.2045 24.7273C10.2045 28.0455 10.697 30.8333 11.6818 33.0909C12.6818 35.3485 14.0758 37.053 15.8636 38.2045C17.6515 39.3561 19.7197 39.9318 22.0682 39.9318C23.3864 39.9318 24.6061 39.7576 25.7273 39.4091C26.8636 39.0606 27.8712 38.553 28.75 37.8864C29.6288 37.2045 30.3561 36.3788 30.9318 35.4091C31.5227 34.4394 31.9318 33.3333 32.1591 32.0909L42.1136 32.1364C41.8561 34.2727 41.2121 36.3333 40.1818 38.3182C39.1667 40.2879 37.7955 42.053 36.0682 43.6136C34.3561 45.1591 32.3106 46.3864 29.9318 47.2955C27.5682 48.1894 24.8939 48.6364 21.9091 48.6364C17.7576 48.6364 14.0455 47.697 10.7727 45.8182C7.51515 43.9394 4.93939 41.2197 3.04545 37.6591C1.16667 34.0985 0.227273 29.7879 0.227273 24.7273C0.227273 19.6515 1.18182 15.3333 3.09091 11.7727C5 8.21212 7.59091 5.5 10.8636 3.63636C14.1364 1.75757 17.8182 0.81818 21.9091 0.81818C24.6061 0.81818 27.1061 1.19697 29.4091 1.95454C31.7273 2.71212 33.7803 3.81818 35.5682 5.27272C37.3561 6.71212 38.8106 8.47727 39.9318 10.5682C41.0682 12.6591 41.7955 15.053 42.1136 17.75ZM58.6705 27.8182V48H48.9886V1.45454H58.3977V19.25H58.8068C59.5947 17.1894 60.8674 15.5758 62.625 14.4091C64.3826 13.2273 66.5871 12.6364 69.2386 12.6364C71.6629 12.6364 73.7765 13.1667 75.5795 14.2273C77.3977 15.2727 78.8068 16.7803 79.8068 18.75C80.822 20.7045 81.322 23.0455 81.3068 25.7727V48H71.625V27.5C71.6402 25.3485 71.0947 23.6742 69.9886 22.4773C68.8977 21.2803 67.3674 20.6818 65.3977 20.6818C64.0795 20.6818 62.9129 20.9621 61.8977 21.5227C60.8977 22.0833 60.1098 22.9015 59.5341 23.9773C58.9735 25.0379 58.6856 26.3182 58.6705 27.8182ZM98.8807 48.6591C96.6534 48.6591 94.6686 48.2727 92.9261 47.5C91.1837 46.7121 89.8049 45.553 88.7898 44.0227C87.7898 42.4773 87.2898 40.553 87.2898 38.25C87.2898 36.3106 87.6458 34.6818 88.358 33.3636C89.0701 32.0455 90.0398 30.9848 91.267 30.1818C92.4943 29.3788 93.8883 28.7727 95.4489 28.3636C97.0246 27.9545 98.6761 27.6667 100.403 27.5C102.434 27.2879 104.07 27.0909 105.312 26.9091C106.555 26.7121 107.456 26.4242 108.017 26.0455C108.578 25.6667 108.858 25.1061 108.858 24.3636V24.2273C108.858 22.7879 108.403 21.6742 107.494 20.8864C106.6 20.0985 105.328 19.7045 103.676 19.7045C101.934 19.7045 100.547 20.0909 99.517 20.8636C98.4867 21.6212 97.8049 22.5758 97.4716 23.7273L88.517 23C88.9716 20.8788 89.8655 19.0455 91.1989 17.5C92.5322 15.9394 94.2519 14.7424 96.358 13.9091C98.4792 13.0606 100.934 12.6364 103.722 12.6364C105.661 12.6364 107.517 12.8636 109.29 13.3182C111.078 13.7727 112.661 14.4773 114.04 15.4318C115.434 16.3864 116.532 17.6136 117.335 19.1136C118.138 20.5985 118.54 22.3788 118.54 24.4545V48H109.358V43.1591H109.085C108.525 44.25 107.775 45.2121 106.835 46.0455C105.896 46.8636 104.767 47.5076 103.449 47.9773C102.131 48.4318 100.608 48.6591 98.8807 48.6591ZM101.653 41.9773C103.078 41.9773 104.335 41.697 105.426 41.1364C106.517 40.5606 107.373 39.7879 107.994 38.8182C108.616 37.8485 108.926 36.75 108.926 35.5227V31.8182C108.623 32.0152 108.206 32.197 107.676 32.3636C107.161 32.5152 106.578 32.6591 105.926 32.7955C105.275 32.9167 104.623 33.0303 103.972 33.1364C103.32 33.2273 102.729 33.3106 102.199 33.3864C101.063 33.553 100.07 33.8182 99.2216 34.1818C98.3731 34.5455 97.714 35.0379 97.2443 35.6591C96.7746 36.2652 96.5398 37.0227 96.5398 37.9318C96.5398 39.25 97.017 40.2576 97.9716 40.9545C98.9413 41.6364 100.169 41.9773 101.653 41.9773ZM144.619 13.0909V20.3636H123.597V13.0909H144.619ZM128.369 4.72727H138.051V37.2727C138.051 38.1667 138.188 38.8636 138.46 39.3636C138.733 39.8485 139.112 40.1894 139.597 40.3864C140.097 40.5833 140.672 40.6818 141.324 40.6818C141.778 40.6818 142.233 40.6439 142.688 40.5682C143.142 40.4773 143.491 40.4091 143.733 40.3636L145.256 47.5682C144.771 47.7197 144.089 47.8939 143.21 48.0909C142.331 48.303 141.263 48.4318 140.006 48.4773C137.672 48.5682 135.627 48.2576 133.869 47.5455C132.127 46.8333 130.771 45.7273 129.801 44.2273C128.831 42.7273 128.354 40.8333 128.369 38.5455V4.72727Z" fill="#A5FF11"/>
</svg>
