<svg width="90" height="115" viewBox="0 0 90 115" fill="none" xmlns="http://www.w3.org/2000/svg">
<path d="M53.6615 114.349C43.5861 114.349 34.4599 112.154 26.2831 107.764C18.2523 103.227 11.8274 96.7144 7.00908 88.2263C2.33614 79.5917 0 69.2739 0 57.2733C0 45.1269 2.62825 34.809 7.88474 26.3209C13.1419 17.8328 20.0773 11.3933 28.6923 7.00322C37.3072 2.46613 46.5794 0.197754 56.5088 0.197754C63.2252 0.197754 69.1389 1.29535 74.25 3.4906C79.5065 5.68579 84.1787 8.46637 88.2675 11.8325L73.1546 32.6872C68.0442 28.4428 63.1521 26.3209 58.4799 26.3209C50.7412 26.3209 44.5354 29.1015 39.8624 34.6626C35.3362 40.2238 33.0731 47.7611 33.0731 57.2733C33.0731 66.6397 35.3362 74.177 39.8624 79.8845C44.5354 85.4457 50.3761 88.2263 57.3845 88.2263C60.889 88.2263 64.3205 87.4944 67.679 86.0312C71.0375 84.421 74.1039 82.5187 76.8782 80.3237L89.5813 101.397C84.1787 106.081 78.3381 109.447 72.0592 111.496C65.7811 113.398 59.6483 114.349 53.6615 114.349Z" fill="#FCFCFC"/>
</svg>
