<svg width="161" height="112" viewBox="0 0 161 112" fill="none" xmlns="http://www.w3.org/2000/svg">
<path d="M0.661377 111.715V2.83202H26.9445L29.1346 16.8813H30.0108C34.537 12.3448 39.3561 8.46637 44.4665 5.24678C49.5769 1.88074 55.7097 0.197754 62.8648 0.197754C70.6035 0.197754 76.8093 1.80762 81.4816 5.02727C86.3006 8.10042 90.0966 12.5644 92.8709 18.4183C97.6898 13.442 102.804 9.19827 108.205 5.68579C113.606 2.02712 119.882 0.197754 127.04 0.197754C138.717 0.197754 147.263 4.14918 152.665 12.052C158.217 19.8083 160.987 30.4921 160.987 44.1022V111.715H128.79V48.2734C128.79 40.3702 127.698 34.9554 125.507 32.0284C123.461 29.1015 120.106 27.6383 115.428 27.6383C110.027 27.6383 103.823 31.1502 96.8136 38.1751V111.715H64.6168V48.2734C64.6168 40.3702 63.5214 34.9554 61.3313 32.0284C59.2873 29.1015 55.9288 27.6383 51.2565 27.6383C45.8533 27.6383 39.7212 31.1502 32.8581 38.1751V111.715H0.661377Z" fill="#FCFCFC"/>
</svg>
