<svg width="74" height="112" viewBox="0 0 74 112" fill="none" xmlns="http://www.w3.org/2000/svg">
<path d="M0.55542 111.715V2.83202H26.8379L29.0286 21.9308H29.9036C33.8443 14.6131 38.5943 9.19827 44.1402 5.68579C49.6927 2.02712 55.2387 0.197754 60.7846 0.197754C63.8504 0.197754 66.4095 0.417255 68.4556 0.856332C70.495 1.14903 72.2515 1.66123 73.712 2.39301L68.4556 30.2725C66.5543 29.687 64.6595 29.2479 62.7582 28.9551C61.0082 28.6623 58.9623 28.516 56.6268 28.516C52.5348 28.516 48.2322 30.053 43.7059 33.1263C39.3244 36.0533 35.6732 41.1753 32.7522 48.4924V111.715H0.55542Z" fill="#FCFCFC"/>
</svg>
