<svg width="94" height="115" viewBox="0 0 94 115" fill="none" xmlns="http://www.w3.org/2000/svg">
<path d="M32.7066 114.349C22.7772 114.349 14.8925 111.203 9.05179 104.91C3.21111 98.4703 0.290771 90.6409 0.290771 81.4209C0.290771 70.0058 5.1091 61.0785 14.7464 54.6391C24.3838 48.2003 39.9341 43.8827 61.3988 41.6876C61.1067 36.8577 59.6469 33.0531 57.0187 30.2725C54.5358 27.3456 50.3017 25.8818 44.315 25.8818C39.7881 25.8818 35.1888 26.76 30.5165 28.516C25.8436 30.2725 20.8792 32.6872 15.6227 35.7605L4.01438 14.4667C10.8767 10.2223 18.1779 6.78365 25.9166 4.14919C33.8013 1.51492 41.9788 0.197754 50.4478 0.197754C64.3192 0.197754 74.9782 4.22231 82.4255 12.2716C89.872 20.3206 93.5956 32.6872 93.5956 49.3707V111.715H67.3126L65.1225 100.52H64.2462C59.7199 104.617 54.8279 107.983 49.5714 110.617C44.461 113.105 38.8394 114.349 32.7066 114.349ZM43.6577 89.3241C47.3083 89.3241 50.4477 88.519 53.076 86.9088C55.8503 85.1529 58.6246 82.8847 61.3988 80.1041V61.0053C50.0096 62.4691 42.1249 64.8106 37.744 68.0303C33.3638 71.1036 31.1731 74.7618 31.1731 79.0062C31.1731 82.5187 32.2685 85.1529 34.4586 86.9088C36.7947 88.519 39.8611 89.3241 43.6577 89.3241Z" fill="#FCFCFC"/>
</svg>
