<svg width="106" height="115" viewBox="0 0 106 115" fill="none" xmlns="http://www.w3.org/2000/svg">
<path d="M53.2246 114.349C44.0274 114.349 35.3368 112.154 27.1593 107.764C19.1266 103.227 12.6333 96.7144 7.66625 88.2263C2.69924 79.5917 0.218994 69.2739 0.218994 57.2733C0.218994 45.1269 2.69924 34.809 7.66625 26.3209C12.6333 17.8328 19.1266 11.3933 27.1593 7.00322C35.3368 2.46613 44.0274 0.197754 53.2246 0.197754C62.4218 0.197754 71.0401 2.46613 79.0662 7.00322C87.099 11.3933 93.5989 17.8328 98.5593 26.3209C103.526 34.809 106.007 45.1269 106.007 57.2733C106.007 69.2739 103.526 79.5917 98.5593 88.2263C93.5989 96.7144 87.099 103.227 79.0662 107.764C71.0401 112.154 62.4218 114.349 53.2246 114.349ZM53.2246 88.2263C59.7969 88.2263 64.7573 85.4457 68.1191 79.8845C71.4743 74.177 73.1585 66.6397 73.1585 57.2733C73.1585 47.7611 71.4743 40.2238 68.1191 34.6626C64.7573 29.1015 59.7969 26.3209 53.2246 26.3209C46.5077 26.3209 41.4683 29.1015 38.1131 34.6626C34.8961 40.2238 33.2908 47.7611 33.2908 57.2733C33.2908 66.6397 34.8961 74.177 38.1131 79.8845C41.4683 85.4457 46.5077 88.2263 53.2246 88.2263Z" fill="#FCFCFC"/>
</svg>
