<svg width="99" height="115" viewBox="0 0 99 115" fill="none" xmlns="http://www.w3.org/2000/svg">
<path d="M55.959 114.349C45.5908 114.349 36.2423 112.081 27.92 107.544C19.5978 103.007 13.0256 96.4948 8.20986 88.0067C3.38758 79.5186 0.979736 69.2739 0.979736 57.2733C0.979736 45.4197 3.38758 35.2482 8.20986 26.7601C13.1703 18.2719 19.5978 11.7593 27.4858 7.22279C35.3673 2.53932 43.6171 0.197754 52.2354 0.197754C62.597 0.197754 71.1429 2.53932 77.8599 7.22279C84.7216 11.7593 89.8334 17.9792 93.1886 25.8818C96.6951 33.6386 98.4451 42.4921 98.4451 52.444C98.4451 55.2246 98.3003 58.0052 98.0109 60.7857C97.7148 63.4199 97.4253 65.3961 97.1358 66.7129H32.0844C33.5449 74.6161 36.8277 80.47 41.9395 84.2746C47.0512 87.9335 53.1827 89.7626 60.3339 89.7626C68.0772 89.7626 75.8862 87.348 83.7743 82.5187L94.5043 102.056C88.9584 105.861 82.748 108.861 75.8863 111.056C69.0245 113.251 62.3799 114.349 55.959 114.349ZM31.8607 45.419H71.0705C71.0705 39.4194 69.61 34.5163 66.689 30.7117C63.9128 26.76 59.3142 24.7846 52.8867 24.7846C47.9262 24.7846 43.4724 26.5405 39.5317 30.053C35.5844 33.4191 33.0318 38.5411 31.8607 45.419Z" fill="#FCFCFC"/>
</svg>
